<svg width="150" height="132" viewBox="0 0 150 132" fill="none" xmlns="http://www.w3.org/2000/svg">
<g opacity="0.04">
<path d="M79.1652 75.2253C79.1432 75.2408 79.1211 75.2563 79.0991 75.2695C77.6192 76.2359 76.0864 77.2111 74.4985 78.1862C74.4148 78.2349 74.3289 78.2902 74.243 78.341C72.3336 79.5108 70.3494 80.6828 68.2836 81.846C66.4579 82.8764 64.663 83.8538 62.8968 84.7804C61.6943 85.4084 60.5073 86.0165 59.3356 86.5959C59.2387 86.6445 59.144 86.6954 59.0449 86.7418C58.6639 86.932 58.2807 87.1199 57.9019 87.3035C57.8601 87.3278 57.8183 87.3455 57.7764 87.3676C55.3583 82.2484 52.9424 77.1292 50.5242 72.01C53.2815 71.3732 56.041 70.7363 58.7983 70.0995C58.9613 70.0619 59.1264 70.0243 59.2894 69.9845C63.0994 69.1044 66.9116 68.2243 70.7216 67.3442C70.955 67.2911 71.1928 67.2358 71.4263 67.1828C73.3313 66.7427 75.2363 66.3027 77.1413 65.8626C77.8152 68.9828 78.4891 72.1007 79.163 75.2231L79.1652 75.2253Z" fill="#EAC824"/>
<path d="M47.822 138C44.9656 137.96 42.8051 136.147 42.1224 133.327C41.0058 128.706 39.9333 124.075 38.8476 119.447C38.5128 118.016 38.1627 116.59 37.8698 115.151C37.6231 113.939 37.8455 113.554 39.0766 113.726C41.3846 114.051 42.9306 112.921 44.4392 111.444C45.7694 110.14 46.2253 110.151 47.7207 111.283C49.4737 112.61 51.1849 113.992 52.9401 115.312C53.7814 115.944 53.9818 116.637 53.5524 117.618C53.0414 118.784 52.6384 119.998 52.2002 121.194C52.0966 121.479 51.9689 121.822 52.2993 122.037C52.6406 122.258 52.8961 121.979 53.0921 121.758C54.2417 120.458 55.4199 119.177 56.5057 117.824C60.0095 113.457 63.3636 108.977 66.5217 104.348C67.6339 102.719 67.8696 102.637 69.6732 103.338C73.0472 104.651 76.3991 106.022 79.7664 107.358C81.4181 108.012 81.4908 107.968 82.1471 106.369C84.1732 101.438 86.2214 96.5158 88.2188 91.5713C88.5734 90.6956 88.9874 90.585 89.7891 90.9787C92.5926 92.3497 95.4226 93.6654 98.2371 95.0143C99.7964 95.7617 99.7523 95.7661 99.8867 94.0988C100.05 92.0909 100.087 90.0831 100.078 88.073C100.076 87.3012 100.276 86.6356 100.801 86.0585C102.851 83.8029 104.901 81.5474 106.93 79.272C107.612 78.5068 107.956 78.6815 108.2 79.597C109.075 82.883 109.96 86.1691 110.861 89.4484C111.061 90.1759 110.841 90.6956 110.319 91.202C107.689 93.7561 105.102 96.3521 102.457 98.8885C101.763 99.5541 101.541 100.2 101.781 101.144C102.287 103.128 102.666 105.144 103.153 107.134C103.373 108.032 103.084 108.499 102.243 108.808C99.9285 109.655 97.6271 110.54 95.3279 111.433C94.0373 111.935 93.9999 112.079 94.7685 113.258C95.9269 115.038 97.0919 116.813 98.2724 118.578C98.497 118.912 98.7282 119.416 99.2414 119.219C99.7545 119.025 99.5827 118.498 99.5475 118.094C99.4264 116.67 99.281 115.248 99.1467 113.824C99.074 113.052 99.4154 112.601 100.158 112.366C101.847 111.834 103.534 111.29 105.203 110.693C106.159 110.35 106.648 110.697 106.941 111.59C107.676 113.83 108.473 116.048 109.169 118.299C109.823 120.413 109.136 121.873 107.106 122.788C106.443 123.087 105.727 123.282 105.022 123.463C87.7564 127.919 70.4903 132.374 53.2176 136.799C51.3567 137.275 49.4979 137.801 47.8242 137.996L47.822 138Z" fill="#EAC824"/>
<path d="M149.634 9.81024C149.509 12.6186 149.333 15.4248 149.095 18.2265C148.98 19.5975 148.8 20.9663 148.864 22.3484C148.507 24.0776 148.54 25.8445 148.425 27.5958C148.342 28.8585 148.351 30.1344 148.247 31.4015C148.091 33.3187 147.527 33.7764 145.679 33.5841C143.77 32.2307 142.266 30.4263 140.504 28.9071C139.396 27.9541 139.376 27.9187 138.698 29.1614C133.912 37.8939 128.466 46.1686 122.009 53.7512C111.281 66.3491 98.9132 77.0894 85.369 86.5207C75.1151 93.6566 64.1124 99.4148 52.7044 104.388C38.7506 110.474 29.9458 111.816 22.6121 112.178C18.3177 112.389 14.7323 112.187 12.2459 111.96C9.16487 111.769 6.14992 111.166 3.21645 110.248C0.888612 109.521 -0.408543 107.265 0.115606 105.206C0.527437 103.592 1.71007 102.59 3.36621 102.665C4.93425 102.736 6.49128 102.984 8.05491 103.154C9.94889 103.329 11.9838 103.426 14.1553 103.413C19.0752 103.38 23.4292 102.767 27.0696 101.976C32.256 100.788 37.3984 99.4391 42.4021 97.6082C49.7908 94.9037 56.9152 91.6774 63.7886 87.9779C67.7176 85.8639 71.5672 83.5973 75.3375 81.1825C77.2403 79.9641 79.1233 78.7103 80.9864 77.4189C95.7331 67.196 108.923 55.2527 119.754 40.8195C123.244 36.1647 126.482 31.3484 129.087 26.1275C130.133 24.0334 130.133 23.998 127.871 23.4872C126.22 23.1157 124.561 22.7597 122.894 22.4612C121.786 22.2621 120.927 21.7756 120.674 20.6346C120.425 19.5113 121.115 18.7616 121.929 18.1402C128.62 13.0476 135.315 7.96379 142.008 2.87777C142.95 2.16352 143.862 1.40061 144.833 0.730586C146.637 -0.516594 148.641 0.0251805 149.698 1.99104C150.357 4.6026 149.749 7.20752 149.634 9.81024Z" fill="#F3FBFF"/>
<path d="M82.539 5.80998C78.9118 0.97163 73.8685 -0.797417 67.984 0.32593C62.9715 1.28343 59.6527 4.57165 57.3336 8.97437C54.8803 13.6336 54.1227 18.6997 53.854 23.8764C53.8276 24.4005 53.9443 24.9666 53.6073 25.4973C53.462 25.3735 53.3475 25.316 53.2924 25.2231C53.0898 24.8848 52.907 24.5332 52.722 24.186C50.0506 19.1442 46.5886 14.7813 41.7501 11.6722C37.8234 9.14907 33.5443 8.09648 28.9922 9.47413C23.819 11.0442 20.2865 14.4253 19.2095 19.8739C18.1326 25.3248 19.7976 29.9818 23.9577 33.6438C27.0982 36.4057 30.906 37.7745 34.9472 38.5595C37.9445 38.9885 41.019 38.8669 43.937 39.8576C45.2474 39.7514 46.4366 39.1853 47.6986 38.8934C49.3789 38.5064 49.7907 38.7342 50.2268 40.4082C51.5812 45.5937 52.9114 50.7859 54.2526 55.978C54.4993 56.9289 54.7481 57.8886 55.2635 58.7422C55.3383 58.8505 55.4419 58.9191 55.5696 58.9412C56.0783 59.0451 56.5804 58.9766 57.0738 58.8594C59.4787 58.2778 61.8836 57.7006 64.2577 57.0085C65.6033 56.6127 67.0502 56.4999 68.2593 55.6795C68.5918 55.0603 68.5654 54.4412 68.3826 53.7689C66.9114 48.3026 65.4447 42.8362 64.0418 37.3543C63.5794 35.5389 63.8018 35.1364 65.6055 34.5836C68.2064 33.7831 70.8095 32.987 73.3928 32.1312C73.8487 31.9809 74.4786 31.9831 74.3949 31.2202C74.6393 31.0234 74.8772 30.8177 75.1283 30.6298C78.5462 28.0691 81.5854 25.1545 83.5102 21.2671C86.1442 15.9466 86.1684 10.655 82.5324 5.80998H82.539ZM47.9034 32.3745C46.2186 32.8764 44.5052 32.5823 42.8072 32.5049C41.3581 32.4386 39.9068 32.3347 38.4621 32.1268C38.2976 32.1032 38.0503 32.0583 37.7199 31.9919C35.3502 31.4148 33.0973 30.8266 30.9632 29.5374C29.3269 28.5489 27.9923 27.2995 27.3845 25.442C26.6225 23.1157 26.7678 20.8646 28.5055 19.0115C30.3928 16.997 32.7757 16.6167 35.3546 17.3552C38.2617 18.1867 40.486 20.053 42.4284 22.2887C44.7276 24.9334 46.4498 27.9408 47.8329 31.1516C48.0003 31.5408 48.2425 31.9477 47.9034 32.3745ZM77.1654 16.2651C76.5311 19.2725 74.7252 21.539 72.5273 23.5204C69.6577 26.1143 66.3256 27.9563 62.7447 29.3715C61.8153 29.7408 61.3264 29.6059 61.3638 28.4848C61.3991 27.4211 61.3705 26.3531 61.3705 25.2872C61.4211 20.9774 61.9453 16.7692 64.1013 12.9282C64.7862 11.712 65.6517 10.6528 66.7485 9.77929C69.0873 7.91958 71.9217 7.64537 74.2297 9.07167C76.628 10.5532 77.7754 13.3749 77.1632 16.2651H77.1654Z" fill="#F3FBFF"/>
<path d="M68.0457 55.4252C67.896 53.8375 67.3344 52.3493 66.938 50.8212C65.6893 45.9962 64.3943 41.1843 63.1324 36.3615C62.736 34.8467 62.8373 34.7251 64.3327 34.274C67.6912 33.2634 71.0453 32.2352 74.4016 31.2157C80.9468 29.3074 87.4943 27.4101 94.0329 25.4818C95.9489 24.9157 97.8209 24.7653 99.6642 25.7052C100.911 26.3398 101.878 27.2708 102.281 28.6263C103.351 32.2263 104.441 35.8241 105.364 39.4617C105.967 41.8477 104.782 44.0679 102.554 45.1514C101.673 45.5804 100.719 45.8613 99.7986 46.2084C99.3845 47.0045 98.6335 47.261 97.8429 47.5109C90.9783 49.678 84.0213 51.5222 77.0972 53.4859C74.1153 54.3306 71.1444 55.2107 68.1316 55.9515C67.94 55.8011 67.9202 55.622 68.0457 55.4208V55.4252Z" fill="#EAC824"/>
<path d="M44.122 39.2428C45.7561 38.7939 47.3924 38.345 49.0265 37.8961C49.6652 37.7192 50.2069 37.7347 50.4118 38.5286C52.1163 45.1979 53.8231 51.8672 55.5277 58.5365C55.5497 59.3105 54.9199 59.3768 54.4133 59.5294C50.4999 60.7213 46.5445 61.7739 42.6134 62.9039C37.7375 64.308 32.833 65.6105 27.9879 67.1186C27.0563 67.4083 26.1534 67.3685 25.224 67.2756C23.7947 67.5034 22.4029 68.0031 20.9075 67.5874C18.8902 67.028 17.43 65.8604 16.8354 63.8326C15.7783 60.226 14.7565 56.6082 13.8227 52.9684C13.0717 50.0473 14.8578 47.1151 17.9652 46.2062C21.218 45.2554 24.5215 44.4748 27.7963 43.5991C32.7845 42.2635 37.8102 41.0738 42.7455 39.5369C44.122 39.2428 43.371 39.391 44.122 39.2428Z" fill="#EAC824"/>
<path d="M62.3902 84.8887C59.7386 86.5383 56.891 87.7944 54.0655 89.0902C48.3307 91.7172 42.5474 94.2315 36.4757 95.9784C32.6767 97.073 33.4651 97.0399 32.593 93.8467C30.699 86.9076 28.8689 79.9508 27.0256 72.9985C26.8648 72.3904 26.7899 71.7602 26.6754 71.1388C27.0366 70.2985 27.8911 70.3206 28.5694 70.1348C32.2583 69.122 35.9361 68.0739 39.6492 67.1496C44.7013 65.8935 49.6807 64.3744 54.7328 63.1206C55.4573 62.9414 56.0652 62.4063 56.8558 62.4527C57.076 62.4284 57.2456 62.5058 57.3557 62.7026C58.1376 65.595 58.9172 68.4852 59.6439 71.3931C60.5909 75.1855 61.6656 78.9447 62.6655 82.7238C62.8637 83.4757 63.1104 84.243 62.3902 84.8821V84.8887Z" fill="#EAC824"/>
<path d="M101.232 57.3402C97.7393 60.635 94.1231 63.784 90.3858 66.7913C86.7344 69.7258 83.0257 72.5806 79.1651 75.2275C79.1431 75.243 79.121 75.2585 79.099 75.2717C77.9494 76.0634 76.7844 76.8351 75.6062 77.5825C75.2472 77.8081 74.8772 78.0137 74.5094 78.2194C74.4301 78.2636 74.3508 78.3101 74.2694 78.3565C74.2606 78.3521 74.2495 78.3477 74.2429 78.3454C73.6065 78.0314 73.4523 77.399 73.296 76.8064C72.4547 73.6486 71.5759 70.5019 70.7215 67.3508C70.1841 65.3739 69.6577 63.3948 69.1534 61.4112C68.9992 60.8009 68.9134 60.1773 68.997 59.5449C69.0807 59.4984 69.1688 59.4498 69.2547 59.4078C71.7499 58.1119 74.5402 57.7537 77.205 57.035C84.5409 55.0515 91.8504 52.9817 99.1356 50.8212C99.7963 50.6267 100.488 50.2441 101.118 50.9119C101.415 52.064 101.659 53.236 102.025 54.3682C102.408 55.5667 102.164 56.4557 101.23 57.338L101.232 57.3402Z" fill="#EAC824"/>
<path d="M147.053 85.8838C147.047 86.3792 146.829 86.7949 146.591 87.2106C143.765 92.1485 140.872 97.0487 138.24 102.097C137.2 104.092 136.372 104.346 134.454 103.123C130.463 100.582 126.528 97.9509 122.573 95.3571C121.896 94.9126 121.256 94.4283 121.361 93.4863C121.476 92.478 122.291 92.1617 123.075 91.9008C126.327 90.815 129.6 89.7956 132.844 88.6855C136.76 87.3477 140.651 85.9369 144.556 84.5703C145.998 84.0661 147.058 84.6366 147.053 85.8838Z" fill="#EAC824"/>
<path d="M127.728 120.057C125.396 120.314 123.7 120.281 122.004 120.292C121.183 120.296 120.553 120.007 120.172 119.241C119.097 117.083 117.981 114.945 116.95 112.765C116.316 111.424 116.648 110.81 118.08 110.611C120.577 110.264 123.086 109.989 125.588 109.671C126.376 109.569 126.986 109.881 127.455 110.467C129.455 112.966 131.459 115.46 133.412 117.994C134.179 118.987 133.69 119.987 132.404 120.04C130.633 120.113 128.858 120.057 127.726 120.057H127.728Z" fill="#EAC824"/>
<path d="M68.2835 81.8503C66.4578 82.8808 64.663 83.8582 62.8967 84.7848L56.0409 60.2304L68.506 56.7232L69.2547 59.4078L74.4984 78.1884L74.5073 78.2194C74.428 78.2636 74.3487 78.31 74.2672 78.3565C74.2584 78.352 74.2474 78.3476 74.2408 78.3454C72.3314 79.5152 70.3471 80.6872 68.2813 81.8503H68.2835Z" fill="#F3FBFF"/>
<path d="M131.338 68.0916C131.261 68.3105 131.162 68.6953 130.996 69.0469C129.268 72.7309 127.53 76.4105 125.79 80.088C125.689 80.3025 125.57 80.5081 125.451 80.7115C124.414 82.4983 123.332 82.5845 122.145 80.9393C120.599 78.7943 119.053 76.6472 117.567 74.4602C116.347 72.6646 116.571 71.9901 118.536 71.1277C121.927 69.6395 125.314 68.1424 128.717 66.6786C130.184 66.0461 131.318 66.6144 131.338 68.0916Z" fill="#EAC824"/>
<path d="M99.8 46.2203L25.447 67.1493L26.8469 72.1636L101.2 51.2347L99.8 46.2203Z" fill="#B59B1A"/>
</g>
</svg>
