<svg width="4" height="9" viewBox="0 0 4 9" fill="none" xmlns="http://www.w3.org/2000/svg">
<g clip-path="url(#clip0_192_1080)">
<path d="M0.0943043 7.72369C0.0642315 7.75674 0.0407216 7.79561 0.0251165 7.8381C0.0095113 7.88058 0.00211646 7.92584 0.00335458 7.97129C0.0045927 8.01674 0.0144394 8.06149 0.0323323 8.10299C0.0502252 8.14449 0.0758139 8.18192 0.107638 8.21315C0.139461 8.24438 0.176897 8.2688 0.217806 8.285C0.258716 8.30121 0.302298 8.30889 0.346066 8.3076C0.389833 8.30632 0.432928 8.29609 0.47289 8.27751C0.512852 8.25893 0.548898 8.23235 0.578971 8.19931L3.4123 5.08392C3.47082 5.01965 3.50342 4.93456 3.50342 4.84611C3.50342 4.75767 3.47082 4.67258 3.4123 4.60831L0.578971 1.49258C0.549096 1.4588 0.513058 1.43153 0.472949 1.41235C0.43284 1.39316 0.38946 1.38245 0.345329 1.38082C0.301197 1.37919 0.257194 1.38668 0.215875 1.40286C0.174556 1.41905 0.136745 1.44359 0.104638 1.47508C0.0725315 1.50656 0.0467687 1.54435 0.0288467 1.58627C0.0109246 1.62818 0.00120047 1.67337 0.000238981 1.71922C-0.000722506 1.76506 0.00709774 1.81065 0.0232457 1.85333C0.0393937 1.89601 0.0635475 1.93494 0.094304 1.96785L2.71164 4.84611L0.0943043 7.72369Z" fill="#F3FBFF" fill-opacity="0.6"/>
</g>
<defs>
<clipPath id="clip0_192_1080">
<rect width="9" height="4" fill="white" transform="translate(0 9) rotate(-90)"/>
</clipPath>
</defs>
</svg>
