<svg width="10" height="6" viewBox="0 0 10 6" fill="none" xmlns="http://www.w3.org/2000/svg">
<path d="M0.843624 0.641211C0.795889 0.596102 0.739736 0.560838 0.678371 0.53743C0.617007 0.514022 0.551633 0.50293 0.485982 0.504787C0.420331 0.506644 0.355689 0.521414 0.295746 0.548254C0.235803 0.575093 0.181733 0.613476 0.136624 0.661211C0.0915153 0.708947 0.0562501 0.7651 0.0328424 0.826465C0.00943463 0.887829 -0.00165738 0.953203 0.000199794 1.01885C0.00205697 1.0845 0.0168269 1.14915 0.0436662 1.20909C0.0705056 1.26903 0.108889 1.3231 0.156624 1.36821L4.65662 5.61821C4.74946 5.70598 4.87237 5.75488 5.00012 5.75488C5.12788 5.75488 5.25079 5.70598 5.34362 5.61821L9.84412 1.36821C9.89291 1.3234 9.9323 1.26934 9.96001 1.20918C9.98772 1.14902 10.0032 1.08395 10.0056 1.01775C10.0079 0.951551 9.99708 0.885546 9.97371 0.823568C9.95034 0.76159 9.91488 0.704873 9.8694 0.656713C9.82393 0.608553 9.76933 0.569908 9.70879 0.543025C9.64826 0.516142 9.58298 0.501556 9.51676 0.500114C9.45053 0.498671 9.38468 0.510402 9.32303 0.534624C9.26138 0.558846 9.20516 0.595076 9.15762 0.641211L5.00012 4.56721L0.843624 0.641211Z" fill="#F3FBFF" fill-opacity="0.6"/>
</svg>
