<svg width="23" height="21" viewBox="0 0 23 21" fill="none" xmlns="http://www.w3.org/2000/svg">
<path d="M17.5267 12.7122L21.8129 9.02609C22.5341 8.40678 22.1504 7.22496 21.2026 7.14734L15.5686 6.68553C15.373 6.66963 15.1855 6.60018 15.0268 6.48479C14.868 6.36939 14.7441 6.21251 14.6686 6.03134L12.4878 0.81584C12.1211 -0.0616601 10.8791 -0.0616601 10.5123 0.81584L8.33151 6.03134C8.25603 6.21251 8.13211 6.36939 7.97335 6.48479C7.8146 6.60018 7.62713 6.66963 7.43151 6.68553L1.79695 7.14734C0.849698 7.22496 0.466073 8.40678 1.18664 9.02609L3.78989 11.2648C4.02991 11.4716 4.30997 11.6268 4.61259 11.7205C4.91522 11.8143 5.23392 11.8447 5.54882 11.8099L11.3774 11.1715C11.8567 11.1192 12.0553 11.7677 11.6289 11.9927L6.39707 14.7546C6.10505 14.9084 5.84944 15.123 5.6475 15.3841C5.44556 15.6451 5.302 15.9464 5.22651 16.2677L4.51551 19.2715C4.2967 20.1962 5.30189 20.9269 6.11357 20.433L10.9438 17.4951C11.2852 17.287 11.7144 17.287 12.0564 17.4951L16.886 20.433C17.6983 20.9269 18.7029 20.1968 18.4846 19.2715L17.183 13.7702C17.1376 13.5793 17.1457 13.3796 17.2063 13.1929C17.267 13.0063 17.3778 12.84 17.5267 12.7122Z" fill="#EAC824"/>
</svg>
