<svg width="27" height="27" viewBox="0 0 27 27" fill="none" xmlns="http://www.w3.org/2000/svg">
<path d="M6.05672 14.0947C6.37099 14.4166 6.70366 14.7503 7.05379 15.0986L5.51668 16.6025L5.49813 16.6221C5.2608 16.8838 5.44667 17.3164 5.81649 17.3164H6.81063L3.9991 20.0664C3.73438 20.3253 3.92069 20.7803 4.29988 20.7803H5.03621L2.60457 23.8594C2.31161 24.2232 2.78372 24.6849 3.14852 24.4053L6.30379 22.0186V22.7393C6.30379 23.1101 6.76141 23.2991 7.03328 23.0332L9.85262 20.2764V21.249C9.85246 21.3317 9.87701 21.4127 9.92391 21.4814C9.97093 21.5503 10.038 21.6042 10.1163 21.6357C10.1945 21.6672 10.2805 21.6746 10.3634 21.6582C10.4463 21.6417 10.5226 21.6019 10.5821 21.543L12.127 20.0312C12.4903 20.3708 12.8387 20.6884 13.1739 20.9854L11.5938 22.5322C10.9213 23.1898 9.98263 23.2033 9.30086 22.7939L8.045 24.0225C7.35321 24.6989 6.37976 24.6937 5.69442 24.248L4.02742 25.5088C2.26099 26.8565 0.202724 24.5909 1.47469 22.999L2.75789 21.377C2.30431 20.6996 2.31208 19.7377 2.98738 19.0771L4.23738 17.8545C3.82255 17.1814 3.84806 16.2556 4.50399 15.6133L6.05672 14.0947Z" fill="#F3FBFF"/>
<path d="M15.1395 11.5996C14.8601 11.3263 14.8601 10.8832 15.1395 10.61C15.419 10.3369 15.872 10.3368 16.1513 10.61C16.8591 11.3022 17.257 12.2413 17.257 13.2202C17.257 14.1992 16.8591 15.1382 16.1513 15.8304C15.872 16.1037 15.419 16.1035 15.1395 15.8304C14.8601 15.5572 14.8601 15.1141 15.1395 14.8409C15.579 14.4111 15.8263 13.828 15.8263 13.2202C15.8263 12.6124 15.579 12.0293 15.1395 11.5996ZM16.2205 10.5423C15.9412 10.2691 15.9413 9.82603 16.2205 9.55274C16.4999 9.27948 16.9529 9.27948 17.2323 9.55274C17.6717 9.98251 18.2679 10.2244 18.8893 10.2244C19.433 10.2244 19.9575 10.0394 20.3744 9.70543L20.5464 9.55274L20.658 9.46287C20.9357 9.28336 21.3136 9.31356 21.5582 9.55274C21.8025 9.79189 21.8325 10.1606 21.6491 10.4322L21.5582 10.5423L21.2815 10.7878C20.6099 11.326 19.7651 11.6237 18.8893 11.6237C17.8884 11.6237 16.9283 11.2346 16.2205 10.5423Z" fill="#F3FBFF"/>
<path d="M14.1372 6.21009C15.0655 4.6986 17.3063 4.69779 18.2348 6.21106L18.2358 6.21203C18.6021 6.81009 18.7537 7.51088 18.6666 8.2028C18.5795 8.89479 18.2583 9.53879 17.7546 10.0322L15.6293 12.1109C15.1247 12.6036 14.4664 12.9178 13.7588 13.0029C13.0513 13.088 12.3348 12.9398 11.7233 12.5815L11.7224 12.5806C10.2235 11.7007 10.178 9.61552 11.582 8.66087L11.7224 8.57197L11.9565 8.4473C12.4958 8.1882 13.1002 8.0834 13.7005 8.14482C13.6286 7.47141 13.78 6.79278 14.1363 6.21106L14.1372 6.21009ZM12.4565 9.77126C11.8373 10.1362 11.8392 11.0163 12.4595 11.3803C12.7974 11.5782 13.193 11.6611 13.5839 11.6142C13.9752 11.5671 14.3394 11.3928 14.6184 11.1204L15.1747 10.5763L14.6184 10.0322L14.5088 9.93458C14.2469 9.71846 13.9251 9.58049 13.5829 9.53933C13.1919 9.49246 12.7954 9.57416 12.4575 9.77223L12.4565 9.77126ZM15.4395 6.82472L15.3635 6.93006C15.161 7.26067 15.0773 7.64828 15.1253 8.03078C15.1735 8.41349 15.3517 8.76973 15.6302 9.0426L16.1865 9.58668L16.7428 9.0426L16.8426 8.93726C17.0638 8.68114 17.2046 8.36654 17.2468 8.03175C17.2949 7.64921 17.2111 7.26168 17.0086 6.93102C16.6594 6.36172 15.8467 6.32645 15.4395 6.82472Z" fill="#F3FBFF"/>
<path d="M21.3087 5.56698C19.9619 4.24979 19.0034 3.31522 18.1799 2.70077C17.3739 2.09949 16.7849 1.87383 16.1859 1.87363C15.5881 1.87374 14.9999 2.09937 14.194 2.70077C13.3705 3.31531 12.4119 4.2498 11.0652 5.56698C9.71841 6.88417 8.76294 7.82171 8.13461 8.62711C7.59656 9.31684 7.35207 9.84376 7.29923 10.3571L7.28787 10.5763C7.28814 11.1614 7.51952 11.7371 8.13461 12.5255C8.76302 13.3309 9.71841 14.2684 11.0652 15.5856C12.4119 16.9028 13.3704 17.8372 14.194 18.4518C15.0003 19.0535 15.5885 19.2791 16.1859 19.279C16.7845 19.279 17.3737 19.0533 18.1799 18.4518C19.0035 17.8373 19.9619 16.9028 21.3087 15.5856C22.6554 14.2684 23.6109 13.331 24.2392 12.5255C24.8544 11.7368 25.0843 11.1609 25.0839 10.5763C25.0841 9.99129 24.8542 9.41551 24.2392 8.62711C23.611 7.82168 22.6554 6.88418 21.3087 5.56698ZM22.3661 4.5328C23.6828 5.82059 24.7244 6.83763 25.4278 7.73937C26.1441 8.6577 26.5802 9.54221 26.5802 10.5753C26.5809 11.6086 26.1452 12.4937 25.4288 13.4122C24.7253 14.3141 23.6829 15.3318 22.3661 16.6198C21.0494 17.9075 20.0096 18.9262 19.0875 19.6143C18.1481 20.3152 17.2428 20.7414 16.1859 20.7414L16.1869 20.7424C15.1305 20.7427 14.2255 20.3152 13.2863 19.6143C12.3644 18.9262 11.3244 17.9075 10.0078 16.6198C8.69107 15.332 7.64961 14.3149 6.94607 13.4132C6.22937 12.4946 5.793 11.6097 5.79264 10.5763L5.8133 10.1945C5.907 9.32047 6.31906 8.54306 6.94607 7.73937C7.64955 6.83769 8.69096 5.8207 10.0078 4.5328C11.3245 3.24497 12.3644 2.22636 13.2863 1.53833C14.2254 0.837539 15.1296 0.411354 16.1859 0.411233L16.1869 0.410222C17.2438 0.410662 18.1482 0.837475 19.0875 1.53833C20.0096 2.22631 21.0493 3.24494 22.3661 4.5328Z" fill="#F3FBFF"/>
</svg>
