<svg width="10" height="11" viewBox="0 0 10 11" fill="none" xmlns="http://www.w3.org/2000/svg">
<path d="M8.52876 1.02864C8.78911 0.768287 9.21112 0.768287 9.47147 1.02864C9.73182 1.28899 9.73182 1.71099 9.47147 1.97134L5.94282 5.49999L9.47147 9.02864L9.51704 9.07942C9.73061 9.34127 9.71554 9.72727 9.47147 9.97134C9.22739 10.2154 8.84139 10.2305 8.57954 10.0169L8.52876 9.97134L5.00011 6.4427L1.47147 9.97134C1.21112 10.2317 0.789108 10.2317 0.528758 9.97134C0.268409 9.711 0.268409 9.28899 0.528758 9.02864L4.0574 5.49999L0.528758 1.97134C0.268409 1.71099 0.268409 1.28899 0.528758 1.02864C0.789108 0.768287 1.21112 0.768287 1.47147 1.02864L5.00011 4.55728L8.52876 1.02864Z" fill="#E84747"/>
</svg>
