<svg width="11" height="8" viewBox="0 0 11 8" fill="none" xmlns="http://www.w3.org/2000/svg">
<path d="M10.4727 0.695858C10.5348 0.757786 10.584 0.831353 10.6176 0.912347C10.6512 0.99334 10.6685 1.08017 10.6685 1.16786C10.6685 1.25555 10.6512 1.34238 10.6176 1.42337C10.584 1.50436 10.5348 1.57793 10.4727 1.63986L4.47268 7.63986C4.41075 7.70194 4.33718 7.7512 4.25619 7.78481C4.1752 7.81842 4.08837 7.83572 4.00068 7.83572C3.91299 7.83572 3.82616 7.81842 3.74517 7.78481C3.66417 7.7512 3.59061 7.70194 3.52868 7.63986L0.862013 4.97319C0.73683 4.84801 0.666504 4.67823 0.666504 4.50119C0.666504 4.32416 0.73683 4.15437 0.862013 4.02919C0.987195 3.90401 1.15698 3.83368 1.33401 3.83368C1.51105 3.83368 1.68083 3.90401 1.80601 4.02919L4.00068 6.22519L9.52868 0.695858C9.59061 0.633774 9.66418 0.584517 9.74517 0.550908C9.82616 0.5173 9.91299 0.5 10.0007 0.5C10.0884 0.5 10.1752 0.5173 10.2562 0.550908C10.3372 0.584517 10.4108 0.633774 10.4727 0.695858Z" fill="#55A962"/>
</svg>
