<svg width="28" height="27" viewBox="0 0 28 27" fill="none" xmlns="http://www.w3.org/2000/svg">
<path d="M17.9702 12.6002L18.0513 12.6046C18.4549 12.6505 18.77 13.0339 18.77 13.5C18.77 13.9661 18.4549 14.3495 18.0513 14.3954L17.9702 14.3998H10.6968C10.2551 14.3996 9.89697 13.9969 9.89697 13.5C9.89697 13.0031 10.2551 12.6004 10.6968 12.6002H17.9702ZM23.5337 6.29956C23.5336 6.03497 23.448 5.79624 23.3159 5.63269C23.1861 5.47206 23.0269 5.39992 22.8794 5.39978H5.7876C5.64006 5.39992 5.48088 5.47206 5.35107 5.63269C5.28632 5.7129 5.23153 5.81277 5.19287 5.92822C5.1542 6.04376 5.13335 6.17023 5.1333 6.29956V7.20044C5.1334 7.46503 5.21903 7.70376 5.35107 7.86731C5.48088 8.02794 5.64006 8.10008 5.7876 8.10022H22.8794C22.954 8.10015 23.0302 8.08203 23.104 8.04419C23.1782 8.00614 23.2512 7.9474 23.3159 7.86731C23.3807 7.7871 23.4355 7.68722 23.4741 7.57178C23.5128 7.45624 23.5336 7.32977 23.5337 7.20044V6.29956ZM25.1333 7.20044C25.1333 7.54351 25.0786 7.88477 24.9712 8.20569C24.8637 8.52678 24.7047 8.82402 24.4995 9.078C24.2941 9.33219 24.0458 9.53939 23.7671 9.68225C23.4883 9.8251 23.1864 9.89971 22.8794 9.89978H5.7876C5.16389 9.89963 4.58301 9.59222 4.16748 9.078C3.75433 8.56664 3.53379 7.89008 3.53369 7.20044V6.29956C3.53374 5.95649 3.5884 5.61523 3.6958 5.29431C3.80328 4.97322 3.96227 4.67598 4.16748 4.422C4.58301 3.90778 5.16389 3.60037 5.7876 3.60022H22.8794C23.5031 3.60037 24.084 3.90778 24.4995 4.422C24.9127 4.93336 25.1332 5.60992 25.1333 6.29956V7.20044Z" fill="#F3FBFF"/>
<path d="M7.1333 9.46875C7.1333 11.4428 7.13415 14.4598 7.27881 17.1328C7.35127 18.4717 7.4587 19.6976 7.61475 20.6506C7.69289 21.1278 7.77901 21.5126 7.87061 21.7987C7.91603 21.9406 7.95899 22.0452 7.99561 22.1184C8.02604 22.1792 8.04566 22.2049 8.04932 22.2096C8.46029 22.6389 9.03268 22.9058 10.0435 23.0479C11.0716 23.1923 12.4269 23.194 14.3335 23.194C16.2401 23.194 17.5954 23.1923 18.6235 23.0479C19.6344 22.9058 20.2077 22.6385 20.6177 22.2096C20.622 22.204 20.6407 22.1777 20.6704 22.1184C20.7071 22.0452 20.7499 21.9408 20.7954 21.7987C20.8871 21.5126 20.974 21.1279 21.0522 20.6506C21.2084 19.6976 21.3157 18.4716 21.3882 17.1328C21.533 14.4599 21.5337 11.4429 21.5337 9.46875H23.1333C23.1333 11.4341 23.1341 14.506 22.9858 17.2427C22.9119 18.6085 22.799 19.9183 22.6255 20.9769C22.5389 21.5052 22.4339 21.9958 22.3013 22.4095C22.1762 22.7998 21.9942 23.2264 21.7056 23.528C20.9452 24.3233 19.9894 24.6702 18.8218 24.8342C17.6714 24.9958 16.1979 24.9935 14.3335 24.9935C12.4689 24.9935 10.9957 24.9959 9.84521 24.8342C8.75035 24.6804 7.84138 24.3667 7.10498 23.673L6.96045 23.5291C6.67165 23.2275 6.49075 22.7999 6.36572 22.4095C6.23319 21.9957 6.12705 21.5053 6.04053 20.9769C5.86718 19.9182 5.75509 18.6087 5.68115 17.2427C5.53303 14.506 5.53369 11.4341 5.53369 9.46875H7.1333Z" fill="#F3FBFF"/>
</svg>
