<svg width="19" height="25" viewBox="0 0 19 25" fill="none" xmlns="http://www.w3.org/2000/svg">
<path d="M10.4571 15.0938C10.4571 15.9988 10.8167 16.8668 11.4566 17.5068C12.0966 18.1467 12.9646 18.5063 13.8696 18.5063M8.75088 15.0938C8.75088 15.9988 8.39135 16.8668 7.75138 17.5068C7.11141 18.1467 6.24343 18.5063 5.33838 18.5063" stroke="#F3FBFF" stroke-width="1.4" stroke-linecap="round"/>
<path d="M9.60384 13.4173C9.60432 12.7996 9.81106 12.1998 10.1913 11.7129C10.5715 11.2261 11.1033 10.8801 11.7025 10.73C13.0701 10.3887 14.3097 11.6275 13.9676 12.9959C13.8174 13.5951 13.4715 14.127 12.9846 14.5072C12.4978 14.8874 11.8979 15.0941 11.2802 15.0946H9.60384M9.60384 13.4173V15.0946M9.60384 13.4173C9.60336 12.7996 9.39662 12.1998 9.01642 11.7129C8.63622 11.2261 8.10433 10.8801 7.50515 10.73C6.13759 10.3887 4.898 11.6275 5.2401 12.9959C5.39025 13.5951 5.73619 14.127 6.22303 14.5072C6.70987 14.8874 7.30974 15.0941 7.92745 15.0946H9.60384" stroke="#F3FBFF" stroke-width="1.4"/>
<path d="M1.07275 15.0937C1.07275 11.0721 1.07275 9.0613 2.32173 7.81147C3.57241 6.5625 5.58237 6.5625 9.604 6.5625C13.6256 6.5625 15.6365 6.5625 16.8854 7.81147C18.1353 9.06216 18.1353 11.0721 18.1353 15.0937C18.1353 19.1154 18.1353 21.1262 16.8854 22.3752C15.6373 23.625 13.6256 23.625 9.604 23.625C5.58237 23.625 3.57156 23.625 2.32173 22.3752C1.07275 21.127 1.07275 19.1154 1.07275 15.0937Z" stroke="#F3FBFF" stroke-width="1.6"/>
<mask id="path-4-outside-1_127_757" maskUnits="userSpaceOnUse" x="0.0732422" y="-1" width="19" height="8" fill="black">
<rect fill="white" x="0.0732422" y="-1" width="19" height="8"/>
<path d="M9.6046 0C9.77069 8.40761e-05 9.93286 0.0466298 10.0704 0.132812C10.2078 0.218932 10.3143 0.340855 10.3761 0.483398C10.7688 1.3935 11.2561 1.96845 11.7521 2.33105C12.2447 2.69365 12.7865 2.87469 13.339 2.94043C14.4784 3.07703 15.648 2.72351 16.3702 2.42871L16.3888 2.4209C16.492 2.37879 16.6074 2.33175 16.7062 2.29785H16.712C16.9064 2.22915 17.1182 2.21279 17.3224 2.25C17.4687 2.28015 17.6062 2.33902 17.7257 2.42285C17.8454 2.50689 17.9448 2.61373 18.0157 2.73633C18.1532 2.97253 18.1375 3.21097 18.1319 3.28906V3.29102C18.1242 3.38757 18.1063 3.50105 18.0919 3.59863L17.6808 6.25879C17.6569 6.23375 17.6332 6.20827 17.6085 6.18359C17.1804 5.75555 16.6965 5.44823 16.1583 5.22461L16.3331 4.09668C15.4878 4.36883 14.3307 4.61345 13.1261 4.46973C12.2463 4.37055 11.4126 4.04849 10.7179 3.53906C10.2886 3.21917 9.91375 2.84127 9.6046 2.41895C9.27027 2.86886 8.89863 3.24254 8.49034 3.53906C7.79542 4.04789 6.96252 4.37001 6.08311 4.46973C4.87821 4.61353 3.72067 4.36889 2.87413 4.09668L3.02159 5.05371C2.44704 5.23433 1.92795 5.49128 1.46495 5.86035L1.11925 3.61719L1.11632 3.59863C1.09884 3.49676 1.0864 3.39382 1.07726 3.29102V3.28906C1.05973 3.0984 1.0998 2.9069 1.19347 2.73633C1.26435 2.6138 1.36291 2.50685 1.48253 2.42285C1.6022 2.33882 1.7402 2.28014 1.88683 2.25C2.09099 2.21244 2.30259 2.22844 2.49718 2.29688L2.50108 2.29883C2.60081 2.33166 2.71636 2.37883 2.81944 2.4209L2.83897 2.42871C3.56012 2.72346 4.72924 3.0769 5.86729 2.94141C6.44795 2.87775 6.9985 2.66683 7.45714 2.33105C7.95086 1.96845 8.43827 1.3935 8.83214 0.483398C8.89391 0.340896 9.00051 0.218955 9.1378 0.132812C9.27543 0.0465845 9.43842 3.5808e-05 9.6046 0Z"/>
</mask>
<path d="M9.6046 0C9.77069 8.40761e-05 9.93286 0.0466298 10.0704 0.132812C10.2078 0.218932 10.3143 0.340855 10.3761 0.483398C10.7688 1.3935 11.2561 1.96845 11.7521 2.33105C12.2447 2.69365 12.7865 2.87469 13.339 2.94043C14.4784 3.07703 15.648 2.72351 16.3702 2.42871L16.3888 2.4209C16.492 2.37879 16.6074 2.33175 16.7062 2.29785H16.712C16.9064 2.22915 17.1182 2.21279 17.3224 2.25C17.4687 2.28015 17.6062 2.33902 17.7257 2.42285C17.8454 2.50689 17.9448 2.61373 18.0157 2.73633C18.1532 2.97253 18.1375 3.21097 18.1319 3.28906V3.29102C18.1242 3.38757 18.1063 3.50105 18.0919 3.59863L17.6808 6.25879C17.6569 6.23375 17.6332 6.20827 17.6085 6.18359C17.1804 5.75555 16.6965 5.44823 16.1583 5.22461L16.3331 4.09668C15.4878 4.36883 14.3307 4.61345 13.1261 4.46973C12.2463 4.37055 11.4126 4.04849 10.7179 3.53906C10.2886 3.21917 9.91375 2.84127 9.6046 2.41895C9.27027 2.86886 8.89863 3.24254 8.49034 3.53906C7.79542 4.04789 6.96252 4.37001 6.08311 4.46973C4.87821 4.61353 3.72067 4.36889 2.87413 4.09668L3.02159 5.05371C2.44704 5.23433 1.92795 5.49128 1.46495 5.86035L1.11925 3.61719L1.11632 3.59863C1.09884 3.49676 1.0864 3.39382 1.07726 3.29102V3.28906C1.05973 3.0984 1.0998 2.9069 1.19347 2.73633C1.26435 2.6138 1.36291 2.50685 1.48253 2.42285C1.6022 2.33882 1.7402 2.28014 1.88683 2.25C2.09099 2.21244 2.30259 2.22844 2.49718 2.29688L2.50108 2.29883C2.60081 2.33166 2.71636 2.37883 2.81944 2.4209L2.83897 2.42871C3.56012 2.72346 4.72924 3.0769 5.86729 2.94141C6.44795 2.87775 6.9985 2.66683 7.45714 2.33105C7.95086 1.96845 8.43827 1.3935 8.83214 0.483398C8.89391 0.340896 9.00051 0.218955 9.1378 0.132812C9.27543 0.0465845 9.43842 3.5808e-05 9.6046 0Z" fill="#F3FBFF"/>
<path d="M9.6046 0L9.60465 -0.1L9.60458 -0.1L9.6046 0ZM10.0704 0.132812L10.1235 0.0480815L10.1235 0.0480711L10.0704 0.132812ZM10.3761 0.483398L10.4679 0.443775L10.4678 0.443604L10.3761 0.483398ZM11.7521 2.33105L11.8113 2.25052L11.8111 2.25033L11.7521 2.33105ZM13.339 2.94043L13.3509 2.84114L13.3508 2.84113L13.339 2.94043ZM16.3702 2.42871L16.408 2.5213L16.409 2.52087L16.3702 2.42871ZM16.3888 2.4209L16.351 2.32831L16.35 2.32873L16.3888 2.4209ZM16.7062 2.29785V2.19785H16.6895L16.6737 2.20327L16.7062 2.29785ZM16.712 2.29785V2.39785H16.7292L16.7453 2.39214L16.712 2.29785ZM17.3224 2.25L17.3426 2.15203L17.3403 2.15162L17.3224 2.25ZM17.7257 2.42285L17.7832 2.34101L17.7831 2.34099L17.7257 2.42285ZM18.0157 2.73633L17.9292 2.78639L17.9293 2.78664L18.0157 2.73633ZM18.1319 3.28906L18.0319 3.28196V3.28906H18.1319ZM18.1319 3.29102L18.2319 3.29906V3.29102H18.1319ZM18.0919 3.59863L18.1907 3.61391L18.1908 3.61325L18.0919 3.59863ZM17.6808 6.25879L17.6084 6.32778L17.7486 6.47486L17.7796 6.27406L17.6808 6.25879ZM17.6085 6.18359L17.6792 6.11291L17.6792 6.11288L17.6085 6.18359ZM16.1583 5.22461L16.0595 5.20929L16.0475 5.28684L16.1199 5.31696L16.1583 5.22461ZM16.3331 4.09668L16.4319 4.11199L16.4568 3.95182L16.3025 4.00149L16.3331 4.09668ZM13.1261 4.46973L13.1379 4.37043L13.1373 4.37036L13.1261 4.46973ZM10.7179 3.53906L10.6581 3.61925L10.6587 3.61971L10.7179 3.53906ZM9.6046 2.41895L9.68529 2.35988L9.6052 2.25047L9.52433 2.3593L9.6046 2.41895ZM8.49034 3.53906L8.43158 3.45815L8.43126 3.45838L8.49034 3.53906ZM6.08311 4.46973L6.07185 4.37036L6.07126 4.37043L6.08311 4.46973ZM2.87413 4.09668L2.90474 4.00148L2.75065 3.95193L2.7753 4.11191L2.87413 4.09668ZM3.02159 5.05371L3.05158 5.14911L3.1335 5.12336L3.12042 5.03848L3.02159 5.05371ZM1.46495 5.86035L1.36612 5.87558L1.39239 6.04607L1.52728 5.93855L1.46495 5.86035ZM1.11925 3.61719L1.21808 3.60196L1.21802 3.60159L1.11925 3.61719ZM1.11632 3.59863L1.2151 3.58304L1.21488 3.58173L1.11632 3.59863ZM1.07726 3.29102H0.97686L0.977649 3.29988L1.07726 3.29102ZM1.07726 3.28906H1.17768L1.17684 3.27991L1.07726 3.28906ZM1.19347 2.73633L1.10689 2.68624L1.10581 2.68819L1.19347 2.73633ZM1.48253 2.42285L1.42506 2.34101L1.42506 2.34101L1.48253 2.42285ZM1.88683 2.25L1.86873 2.15163L1.86669 2.15205L1.88683 2.25ZM2.49718 2.29688L2.54225 2.20672L2.53035 2.20254L2.49718 2.29688ZM2.50108 2.29883L2.45636 2.38827L2.46289 2.39153L2.46982 2.39381L2.50108 2.29883ZM2.81944 2.4209L2.78165 2.51349L2.7823 2.51375L2.81944 2.4209ZM2.83897 2.42871L2.87681 2.33614L2.87611 2.33586L2.83897 2.42871ZM5.86729 2.94141L5.8564 2.842L5.85547 2.84211L5.86729 2.94141ZM7.45714 2.33105L7.51621 2.41174L7.51633 2.41165L7.45714 2.33105ZM8.83214 0.483398L8.74039 0.443627L8.74036 0.443681L8.83214 0.483398ZM9.1378 0.132812L9.08471 0.0480711L9.08465 0.0481059L9.1378 0.132812ZM9.6046 0L9.60455 0.1C9.75214 0.100075 9.89589 0.141473 10.0173 0.217554L10.0704 0.132812L10.1235 0.0480711C9.96983 -0.0482131 9.78923 -0.0999065 9.60465 -0.1L9.6046 0ZM10.0704 0.132812L10.0173 0.217543C10.1384 0.293467 10.2309 0.40009 10.2843 0.523193L10.3761 0.483398L10.4678 0.443604C10.3976 0.281619 10.2772 0.144398 10.1235 0.0480815L10.0704 0.132812ZM10.3761 0.483398L10.2843 0.523022C10.6831 1.44716 11.1808 2.03724 11.693 2.41178L11.7521 2.33105L11.8111 2.25033C11.3315 1.89967 10.8546 1.33983 10.4679 0.443775L10.3761 0.483398ZM11.7521 2.33105L11.6928 2.41159C12.2016 2.78609 12.7604 2.9723 13.3272 3.03973L13.339 2.94043L13.3508 2.84113C12.8125 2.77708 12.2878 2.60122 11.8113 2.25052L11.7521 2.33105ZM13.339 2.94043L13.3271 3.03972C14.4915 3.17932 15.68 2.81845 16.408 2.5213L16.3702 2.42871L16.3324 2.33613C15.6159 2.62858 14.4653 2.97474 13.3509 2.84114L13.339 2.94043ZM16.3702 2.42871L16.409 2.52087L16.4276 2.51306L16.3888 2.4209L16.35 2.32873L16.3314 2.33655L16.3702 2.42871ZM16.3888 2.4209L16.4266 2.51348C16.5304 2.47111 16.6431 2.42523 16.7386 2.39243L16.7062 2.29785L16.6737 2.20327C16.5718 2.23826 16.4535 2.28646 16.351 2.32831L16.3888 2.4209ZM16.7062 2.29785V2.39785H16.712V2.29785V2.19785H16.7062V2.29785ZM16.712 2.29785L16.7453 2.39214C16.9231 2.32933 17.1172 2.31425 17.3044 2.34838L17.3224 2.25L17.3403 2.15162C17.1192 2.11132 16.8898 2.12898 16.6787 2.20357L16.712 2.29785ZM17.3224 2.25L17.3022 2.34794C17.4355 2.37541 17.5603 2.42894 17.6683 2.50471L17.7257 2.42285L17.7831 2.34099C17.6522 2.2491 17.5019 2.18489 17.3426 2.15206L17.3224 2.25ZM17.7257 2.42285L17.6682 2.50469C17.7767 2.58084 17.8659 2.67706 17.9292 2.78639L18.0157 2.73633L18.1023 2.68627C18.0237 2.5504 17.9141 2.43293 17.7832 2.34101L17.7257 2.42285ZM18.0157 2.73633L17.9293 2.78664C18.0508 2.99525 18.0375 3.20743 18.0322 3.28197L18.1319 3.28906L18.2317 3.29615C18.2375 3.21451 18.2557 2.94981 18.1022 2.68602L18.0157 2.73633ZM18.1319 3.28906H18.0319V3.29102H18.1319H18.2319V3.28906H18.1319ZM18.1319 3.29102L18.0323 3.283C18.0248 3.37534 18.0077 3.48451 17.993 3.58401L18.0919 3.59863L18.1908 3.61325C18.205 3.51759 18.2235 3.3998 18.2316 3.29903L18.1319 3.29102ZM18.0919 3.59863L17.9931 3.58336L17.5819 6.24352L17.6808 6.25879L17.7796 6.27406L18.1907 3.61391L18.0919 3.59863ZM17.6808 6.25879L17.7532 6.1898C17.7303 6.16584 17.705 6.1387 17.6792 6.11291L17.6085 6.18359L17.5378 6.25428C17.5613 6.27784 17.5835 6.30166 17.6084 6.32778L17.6808 6.25879ZM17.6085 6.18359L17.6792 6.11288C17.2409 5.67465 16.7457 5.36038 16.1967 5.13226L16.1583 5.22461L16.1199 5.31696C16.6473 5.53608 17.1199 5.83645 17.5378 6.25431L17.6085 6.18359ZM16.1583 5.22461L16.2571 5.23992L16.4319 4.11199L16.3331 4.09668L16.2343 4.08136L16.0595 5.20929L16.1583 5.22461ZM16.3331 4.09668L16.3025 4.00149C15.4645 4.27126 14.3229 4.5118 13.1379 4.37043L13.1261 4.46973L13.1142 4.56902C14.3386 4.71509 15.511 4.46639 16.3638 4.19187L16.3331 4.09668ZM13.1261 4.46973L13.1373 4.37036C12.2744 4.27308 11.4573 3.95723 10.777 3.45842L10.7179 3.53906L10.6587 3.61971C11.368 4.13975 12.2183 4.46803 13.1149 4.5691L13.1261 4.46973ZM10.7179 3.53906L10.7776 3.45888C10.3563 3.14487 9.98848 2.77406 9.68529 2.35988L9.6046 2.41895L9.52391 2.47801C9.83902 2.90848 10.221 3.29348 10.6581 3.61925L10.7179 3.53906ZM9.6046 2.41895L9.52433 2.3593C9.19538 2.80198 8.8308 3.16822 8.43158 3.45815L8.49034 3.53906L8.5491 3.61998C8.96646 3.31687 9.34516 2.93574 9.68486 2.47859L9.6046 2.41895ZM8.49034 3.53906L8.43126 3.45838C7.75077 3.95664 6.93445 4.27255 6.07185 4.37036L6.08311 4.46973L6.09438 4.56909C6.9906 4.46747 7.84007 4.13914 8.54942 3.61975L8.49034 3.53906ZM6.08311 4.46973L6.07126 4.37043C4.88605 4.51189 3.74393 4.27132 2.90474 4.00148L2.87413 4.09668L2.84352 4.19188C3.6974 4.46645 4.87038 4.71518 6.09497 4.56902L6.08311 4.46973ZM2.87413 4.09668L2.7753 4.11191L2.92276 5.06894L3.02159 5.05371L3.12042 5.03848L2.97296 4.08145L2.87413 4.09668ZM3.02159 5.05371L2.9916 4.95831C2.40736 5.14198 1.8768 5.40417 1.40262 5.78216L1.46495 5.86035L1.52728 5.93855C1.9791 5.57839 2.48672 5.32668 3.05158 5.14911L3.02159 5.05371ZM1.46495 5.86035L1.56378 5.84512L1.21808 3.60196L1.11925 3.61719L1.02041 3.63242L1.36612 5.87558L1.46495 5.86035ZM1.11925 3.61719L1.21802 3.60159L1.21509 3.58304L1.11632 3.59863L1.01754 3.61423L1.02047 3.63278L1.11925 3.61719ZM1.11632 3.59863L1.21488 3.58173C1.19796 3.48307 1.18582 3.3829 1.17686 3.28216L1.07726 3.29102L0.977649 3.29988C0.986977 3.40475 0.999731 3.51044 1.01776 3.61554L1.11632 3.59863ZM1.07726 3.29102H1.17726V3.28906H1.07726H0.977255V3.29102H1.07726ZM1.07726 3.28906L1.17684 3.27991C1.16116 3.10934 1.19693 2.93776 1.28112 2.78446L1.19347 2.73633L1.10581 2.68819C1.00266 2.87603 0.958306 3.08746 0.977675 3.29821L1.07726 3.28906ZM1.19347 2.73633L1.28003 2.7864C1.34341 2.67684 1.4319 2.5806 1.54 2.50469L1.48253 2.42285L1.42506 2.34101C1.29392 2.4331 1.18529 2.55076 1.10691 2.68625L1.19347 2.73633ZM1.48253 2.42285L1.53999 2.50469C1.64803 2.42884 1.77322 2.37544 1.90696 2.34795L1.88683 2.25L1.86669 2.15205C1.70717 2.18484 1.55638 2.24881 1.42506 2.34101L1.48253 2.42285ZM1.88683 2.25L1.90492 2.34835C2.09218 2.3139 2.28609 2.32864 2.464 2.39121L2.49718 2.29688L2.53035 2.20254C2.31908 2.12824 2.0898 2.11098 1.86873 2.15165L1.88683 2.25ZM2.49718 2.29688L2.45246 2.38632L2.45636 2.38827L2.50108 2.29883L2.5458 2.20939L2.5419 2.20743L2.49718 2.29688ZM2.50108 2.29883L2.46982 2.39381C2.56558 2.42534 2.67771 2.47106 2.78165 2.51348L2.81944 2.4209L2.85723 2.32831C2.75502 2.28659 2.63603 2.23797 2.53235 2.20384L2.50108 2.29883ZM2.81944 2.4209L2.7823 2.51375L2.80183 2.52156L2.83897 2.42871L2.87611 2.33586L2.85658 2.32805L2.81944 2.4209ZM2.83897 2.42871L2.80114 2.52128C3.52808 2.8184 4.71606 3.17917 5.87912 3.0407L5.86729 2.94141L5.85547 2.84211C4.74242 2.97462 3.59216 2.62853 2.87681 2.33614L2.83897 2.42871ZM5.86729 2.94141L5.87819 3.04081C6.47569 2.97531 7.04297 2.75821 7.51621 2.41174L7.45714 2.33105L7.39807 2.25037C6.95404 2.57545 6.42021 2.78019 5.8564 2.842L5.86729 2.94141ZM7.45714 2.33105L7.51633 2.41165C8.02623 2.03717 8.52399 1.4472 8.92391 0.523116L8.83214 0.483398L8.74036 0.443681C8.35255 1.33979 7.87549 1.89974 7.39794 2.25046L7.45714 2.33105ZM8.83214 0.483398L8.92389 0.52317C8.97721 0.40017 9.06985 0.293501 9.19095 0.217519L9.1378 0.132812L9.08465 0.0481059C8.93117 0.144408 8.81061 0.281622 8.74039 0.443627L8.83214 0.483398ZM9.1378 0.132812L9.1909 0.217554C9.31232 0.141477 9.45686 0.100032 9.60462 0.1L9.6046 0L9.60458 -0.1C9.41998 -0.0999602 9.23854 -0.0483074 9.08471 0.0480711L9.1378 0.132812Z" fill="#F3FBFF" mask="url(#path-4-outside-1_127_757)"/>
</svg>
