<svg width="12" height="12" viewBox="0 0 12 12" fill="none" xmlns="http://www.w3.org/2000/svg">
<path d="M10.8573 6.8081H6.80969V10.8557C6.80969 11.0704 6.7244 11.2763 6.57258 11.4281C6.42077 11.58 6.21486 11.6652 6.00016 11.6652C5.78546 11.6652 5.57956 11.58 5.42774 11.4281C5.27593 11.2763 5.19064 11.0704 5.19064 10.8557V6.8081H1.14302C0.928321 6.8081 0.722415 6.72281 0.5706 6.571C0.418785 6.41918 0.333496 6.21328 0.333496 5.99858C0.333496 5.78388 0.418785 5.57797 0.5706 5.42616C0.722415 5.27434 0.928321 5.18905 1.14302 5.18905H5.19064V1.14143C5.19064 0.926734 5.27593 0.720828 5.42774 0.569013C5.57956 0.417198 5.78546 0.331909 6.00016 0.331909C6.21486 0.331909 6.42077 0.417198 6.57258 0.569013C6.7244 0.720828 6.80969 0.926734 6.80969 1.14143V5.18905H10.8573C11.072 5.18905 11.2779 5.27434 11.4297 5.42616C11.5815 5.57797 11.6668 5.78388 11.6668 5.99858C11.6668 6.21328 11.5815 6.41918 11.4297 6.571C11.2779 6.72281 11.072 6.8081 10.8573 6.8081Z" fill="#1F1F1F"/>
</svg>
