<svg width="14" height="13" viewBox="0 0 14 13" fill="none" xmlns="http://www.w3.org/2000/svg">
<path d="M10.5712 7.71835L13.1112 5.53402C13.5385 5.16702 13.3112 4.46669 12.7495 4.42069L9.41088 4.14702C9.29496 4.1376 9.18387 4.09645 9.08979 4.02806C8.99571 3.95968 8.92228 3.86671 8.87755 3.75935L7.58521 0.668686C7.36788 0.148687 6.63188 0.148687 6.41455 0.668686L5.12221 3.75935C5.07748 3.86671 5.00405 3.95968 4.90997 4.02806C4.81589 4.09645 4.7048 4.1376 4.58888 4.14702L1.24988 4.42069C0.688547 4.46669 0.461214 5.16702 0.888214 5.53402L2.43088 6.86069C2.57312 6.98323 2.73908 7.07516 2.91841 7.13073C3.09774 7.1863 3.28661 7.20433 3.47321 7.18369L6.92721 6.80535C7.21121 6.77435 7.32888 7.15869 7.07621 7.29202L3.97588 8.92869C3.80283 9.01981 3.65136 9.14701 3.53169 9.3017C3.41202 9.45639 3.32695 9.63496 3.28221 9.82535L2.86088 11.6054C2.73121 12.1534 3.32688 12.5864 3.80788 12.2937L6.67021 10.5527C6.87255 10.4294 7.12688 10.4294 7.32955 10.5527L10.1915 12.2937C10.6729 12.5864 11.2682 12.1537 11.1389 11.6054L10.3675 8.34535C10.3407 8.23222 10.3454 8.11386 10.3814 8.00326C10.4173 7.89267 10.483 7.79409 10.5712 7.71835Z" fill="#E84747"/>
</svg>
