<svg width="12" height="13" viewBox="0 0 12 13" fill="none" xmlns="http://www.w3.org/2000/svg">
<path d="M0.680352 7.1803C0.331373 7.22493 0.0812778 7.54525 0.162638 7.88753C0.378589 8.79605 0.804419 9.64467 1.40951 10.3636C2.15181 11.2456 3.13245 11.895 4.23415 12.2343C5.33584 12.5735 6.51195 12.5882 7.62179 12.2767C8.73163 11.9651 9.72822 11.3404 10.4924 10.4773C11.2565 9.61419 11.7558 8.54924 11.9306 7.40982C12.1054 6.2704 11.9483 5.10474 11.478 4.05228C11.0077 2.99982 10.2443 2.1051 9.27885 1.47515C8.49189 0.961636 7.59792 0.641781 6.66993 0.537515C6.32031 0.498234 6.03266 0.785302 6.03065 1.13712C6.02864 1.48893 6.31352 1.77136 6.66187 1.82063C7.34468 1.91722 8.00078 2.16248 8.58261 2.54214C9.34301 3.03833 9.94439 3.74306 10.3148 4.57204C10.6852 5.40102 10.809 6.31915 10.6713 7.21663C10.5336 8.1141 10.1403 8.95291 9.53843 9.63273C8.93656 10.3126 8.15159 10.8046 7.27741 11.05C6.40324 11.2954 5.47687 11.2839 4.60911 11.0166C3.74136 10.7494 2.96895 10.2379 2.38427 9.5432C1.9369 9.01166 1.61394 8.39012 1.43532 7.72404C1.3442 7.38423 1.02933 7.13567 0.680352 7.1803Z" fill="#F3FBFF" fill-opacity="0.25"/>
</svg>
