<svg width="15" height="15" viewBox="0 0 15 15" fill="none" xmlns="http://www.w3.org/2000/svg">
<path d="M12.5722 1.07244C12.9464 0.698185 13.5531 0.698185 13.9273 1.07244C14.3016 1.44669 14.3016 2.05333 13.9273 2.42758L8.85491 7.50001L13.9273 12.5724L13.9928 12.6454C14.2999 13.0218 14.2782 13.5767 13.9273 13.9276C13.5765 14.2784 13.0216 14.3001 12.6452 13.9931L12.5722 13.9276L7.49977 8.85515L2.42734 13.9276C2.05308 14.3018 1.44645 14.3018 1.07219 13.9276C0.697941 13.5533 0.697941 12.9467 1.07219 12.5724L6.14462 7.50001L1.07219 2.42758C0.697941 2.05333 0.697941 1.44669 1.07219 1.07244C1.44645 0.698185 2.05308 0.698185 2.42734 1.07244L7.49977 6.14487L12.5722 1.07244Z" fill="#F3FBFF" fill-opacity="0.6"/>
</svg>
