<svg width="20" height="20" viewBox="0 0 20 20" fill="none" xmlns="http://www.w3.org/2000/svg">
<path d="M15.3571 12.0775L19.1671 8.80097C19.8081 8.25047 19.4671 7.19997 18.6246 7.13097L13.6166 6.72047C13.4427 6.70634 13.276 6.64461 13.1349 6.54203C12.9938 6.43946 12.8837 6.30001 12.8166 6.13897L10.8781 1.50297C10.5521 0.722969 9.44806 0.722969 9.12206 1.50297L7.18357 6.13897C7.11647 6.30001 7.00632 6.43946 6.8652 6.54203C6.72409 6.64461 6.55745 6.70634 6.38357 6.72047L1.37507 7.13097C0.533065 7.19997 0.192065 8.25047 0.832565 8.80097L3.14657 10.791C3.35992 10.9748 3.60886 11.1127 3.87786 11.196C4.14686 11.2794 4.43015 11.3064 4.71007 11.2755L9.89106 10.708C10.3171 10.6615 10.4936 11.238 10.1146 11.438L5.46407 13.893C5.20449 14.0297 4.97728 14.2205 4.79778 14.4525C4.61828 14.6845 4.49066 14.9524 4.42357 15.238L3.79157 17.908C3.59707 18.73 4.49057 19.3795 5.21207 18.9405L9.50556 16.329C9.80906 16.144 10.1906 16.144 10.4946 16.329L14.7876 18.9405C15.5096 19.3795 16.4026 18.7305 16.2086 17.908L15.0516 13.018C15.0112 12.8483 15.0184 12.6707 15.0723 12.5048C15.1262 12.3389 15.2247 12.1911 15.3571 12.0775Z" fill="#EAC824"/>
</svg>
